PathFileType	3	(X/Y/Z)	D:\VICON_DB\Goncalves\Pilot01\09-03-2026\walking_03.trc
DataRate	CameraRate	NumFrames	NumMarkers	Units	OrigDataRate	OrigDataStartFrame	OrigNumFrames
200.0	200.0	4	34	mm	200.0	377	1504	
Frame#	Time	LASI			RASI			LPSI			RPSI			LTHI			LTHAP			LTHAD			LKNE			LKNM			LTIB			LTIAP			LTIAD			LANK			LMED			LHEE			LTOE			LFMH			LSMH			LVMH			RTHI			RTHAP			RTHAD			RKNE			RKNM			RTIB			RTIAP			RTIAD			RANK			RMED			RHEE			RTOE			RFMH			RSMH			RVMH			
		X1	Y1	Z1	X2	Y2	Z2	X3	Y3	Z3	X4	Y4	Z4	X5	Y5	Z5	X6	Y6	Z6	X7	Y7	Z7	X8	Y8	Z8	X9	Y9	Z9	X10	Y10	Z10	X11	Y11	Z11	X12	Y12	Z12	X13	Y13	Z13	X14	Y14	Z14	X15	Y15	Z15	X16	Y16	Z16	X17	Y17	Z17	X18	Y18	Z18	X19	Y19	Z19	X20	Y20	Z20	X21	Y21	Z21	X22	Y22	Z22	X23	Y23	Z23	X24	Y24	Z24	X25	Y25	Z25	X26	Y26	Z26	X27	Y27	Z27	X28	Y28	Z28	X29	Y29	Z29	X30	Y30	Z30	X31	Y31	Z31	X32	Y32	Z32	X33	Y33	Z33	X34	Y34	Z34	
377	1.88	46.863968	907.07617	2702.418	311.13184	874.77301	2672.3574	189.03508	970.87073	2891.6143	252.09373	958.40906	2885.7456	52.098003	766.21667	2687.6865	22.192396	815.54102	2725.0627	36.403164	705.17413	2696.4536	78.308533	562.58441	2701.3496				89.759819	305.91943	2755.2542	146.19746	420.75369	2679.6707	129.1813	267.67102	2714.8401	350.27908	88.493423	2779.4668				179.83472	13.386902	2917.9871	156.74843	76.678329	2699.5911	178.50549	45.642387	2582.2583				90.530952	20.487606	2590.7832	339.8732	587.16443	2677.9326	329.71426	723.0495	2666.8928	294.1402	637.8927	2632.8779	362.43222	459.57898	2707.1838				290.47424	288.61905	2666.6721	246.41631	342.78772	2650.9543	232.44739	281.19977	2627.0774	205.21922	106.3758	2606.8545				122.30933	132.18344	2537.9683	185.47127	22.590597	2487.6265	138.69916	110.97954	2547.3445				205.72224	99.988914	2538.2219
378	1.885	46.904541	907.10492	2702.4795	311.18021	874.75085	2672.3748	189.09537	970.90601	2891.6499	252.15437	958.43884	2885.7751	52.156361	766.34595	2687.7231	22.21575	815.6181	2725.113	36.459602	705.31323	2696.4336	78.211739	562.72748	2701.2625				89.849396	305.98227	2755.1699	146.26215	420.8519	2679.5852	129.27374	267.71777	2714.7429	350.49515	88.521034	2779.4126				179.8978	13.348659	2918.0061	156.8261	76.741989	2699.5347	178.67451	45.68087	2582.0229				90.461731	20.463926	2590.5613	339.89001	587.09991	2678.0229	329.75784	722.98193	2666.9475	294.1731	637.80316	2632.9636	362.49731	459.52939	2707.3206				290.45538	288.60022	2666.7705	246.40236	342.77277	2651.0708	232.41693	281.2095	2627.176	205.15463	106.41969	2606.8235				122.21861	132.22473	2537.8882	185.35126	22.550451	2487.6108	138.59183	111.03524	2547.4082				205.58516	100.08366	2538.2559
379	1.89	46.95517	907.14191	2702.563	311.24045	874.72406	2672.4028	189.17239	970.95184	2891.7019	252.23195	958.47778	2885.8191	52.22953	766.50885	2687.7734	22.247313	815.71863	2725.1833	36.529755	705.48755	2696.4128	78.10247	562.9071	2701.157				89.961441	306.06097	2755.0652	146.33957	420.96692	2679.4778	129.38933	267.7767	2714.6221	350.77658	88.557465	2779.3408				179.97897	13.299354	2918.03	156.92337	76.821892	2699.4634	178.88617	45.729023	2581.728				90.377388	20.435705	2590.2839	339.91141	587.01746	2678.1458	329.8118	722.89868	2667.0232	294.21402	637.69263	2633.0774	362.58231	459.46671	2707.5039				290.43094	288.5769	2666.905	246.38446	342.75296	2651.2305	232.37822	281.22098	2627.3123	205.07008	106.47681	2606.8015				122.10399	132.27632	2537.8059	185.20134	22.49684	2487.6113	138.45343	111.10414	2547.5081				205.41374	100.19936	2538.3191
380	1.895	47.016472	907.18823	2702.6719	311.31323	874.69287	2672.4451	189.26773	971.00952	2891.7729	252.32797	958.52698	2885.8809	52.318539	766.70807	2687.8398	22.28824	815.8454	2725.2756	36.614391	705.69965	2696.3923	77.982971	563.12592	2701.0327				90.097382	306.15659	2754.9395	146.42972	421.09778	2679.3452	129.52962	267.84857	2714.4763	351.13065	88.603813	2779.249				180.08003	13.237866	2918.0579	157.04158	76.919197	2699.3762	179.14334	45.787487	2581.3696				90.277534	20.403015	2589.9468	339.93774	586.91565	2678.3059	329.8768	722.79913	2667.1223	294.26343	637.5603	2633.2222	362.68942	459.38983	2707.7397				290.40036	288.54889	2667.0815	246.36226	342.72778	2651.4404	232.33057	281.23407	2627.4912	204.96324	106.54862	2606.7939				121.96361	132.33891	2537.7253	185.01964	22.427988	2487.634	138.28082	111.18689	2547.6523				205.20566	100.33661	2538.4194
